<?xml version='1.0' encoding='UTF-8'?>
<svg xmlns="http://www.w3.org/2000/svg" xmlns:dc="http://purl.org/dc/elements/1.1/" xmlns:cc="http://creativecommons.org/ns#" xmlns:rdf="http://www.w3.org/1999/02/22-rdf-syntax-ns#" width="24" height="24" viewBox="0 0 24 24" fill="none" stroke="currentColor" stroke-width="2" stroke-linecap="round" stroke-linejoin="round">
  <metadata>
    <rdf:RDF>
      <cc:Work rdf:about="">
        <dc:title>settings-2</dc:title>
        <dc:creator>
          <cc:Agent>
            <dc:title>Tabler Icons Contributors</dc:title>
          </cc:Agent>
        </dc:creator>
        <dc:source>settings — https://tabler.io/icons/icon/settings</dc:source>
        <dc:format>image/svg+xml</dc:format>
        <dc:rights>MIT License</dc:rights>
        <cc:license rdf:resource="https://opensource.org/license/mit/"/>
        <dc:description>Original icon name: settings.</dc:description>
      </cc:Work>
    </rdf:RDF>
  </metadata>
  <path d="M10.325 4.317c.426 -1.756 2.924 -1.756 3.35 0a1.724 1.724 0 0 0 2.573 1.066c1.543 -.94 3.31 .826 2.37 2.37a1.724 1.724 0 0 0 1.065 2.572c1.756 .426 1.756 2.924 0 3.35a1.724 1.724 0 0 0 -1.066 2.573c.94 1.543 -.826 3.31 -2.37 2.37a1.724 1.724 0 0 0 -2.572 1.065c-.426 1.756 -2.924 1.756 -3.35 0a1.724 1.724 0 0 0 -2.573 -1.066c-1.543 .94 -3.31 -.826 -2.37 -2.37a1.724 1.724 0 0 0 -1.065 -2.572c-1.756 -.426 -1.756 -2.924 0 -3.35a1.724 1.724 0 0 0 1.066 -2.573c-.94 -1.543 .826 -3.31 2.37 -2.37c1 .608 2.296 .07 2.572 -1.065"/>
  <path d="M9 12a3 3 0 1 0 6 0a3 3 0 0 0 -6 0"/>
</svg>
